<svg xmlns="http://www.w3.org/2000/svg" viewBox="-16 -12 128 128" role="img"><title>Smart Checkpoints</title><g fill="#19c4d8"><path d="M43.78 44.68A22.5 22.5 0 1 1 39.48 37.23L35.04 39.79A17.5 17.5 0 1 0 39.34 47.24Z"/><path d="M37.66 60.75L73.5 81.44" fill="none" stroke="#19c4d8" stroke-width="5"/><circle cx="73.5" cy="81.44" r="11.3"/></g><g fill="#1d7873"><path d="M56.52 66.68A22.5 22.5 0 1 1 52.22 74.13L56.66 76.69A17.5 17.5 0 1 0 60.96 69.24Z"/><path d="M73.5 63.94L73.5 22.56" fill="none" stroke="#1d7873" stroke-width="5"/><circle cx="73.5" cy="22.56" r="11.3"/></g><g fill="#1d9ea5"><path d="M69.2 44.64A22.5 22.5 0 1 1 77.8 44.64L77.8 39.52A17.5 17.5 0 1 0 69.2 39.52Z"/><path d="M58.34 31.31L22.5 52" fill="none" stroke="#1d9ea5" stroke-width="5"/><circle cx="22.5" cy="52" r="11.3"/></g></svg>
